<?xml version="1.0" encoding="UTF-8"?>
<svg version="1.1" xmlns="http://www.w3.org/2000/svg" width="390" height="390">
<path d="M0 0 C0.81176193 -0.00979385 1.62352386 -0.01958771 2.45988464 -0.02967834 C20.41740686 -0.20165841 37.76226763 -0.04106353 55.3125 4.23828125 C56.64087891 4.55176514 56.64087891 4.55176514 57.99609375 4.87158203 C93.43867292 13.45573355 124.12703442 32.23330798 150.3125 57.23828125 C150.96734375 57.84027344 151.6221875 58.44226562 152.296875 59.0625 C183.19769996 88.27113693 205.20824198 137.03705366 206.48950195 179.4375 C206.51564136 180.93350484 206.5358132 182.42962293 206.55078125 183.92578125 C206.5605751 184.73754318 206.57036896 185.54930511 206.58045959 186.38566589 C206.75243966 204.34318811 206.59184478 221.68804888 202.3125 239.23828125 C201.99901611 240.56666016 201.99901611 240.56666016 201.67919922 241.921875 C193.0950477 277.36445417 174.31747327 308.05281567 149.3125 334.23828125 C148.40951172 335.22054687 148.40951172 335.22054687 147.48828125 336.22265625 C118.27964432 367.12348121 69.51372759 389.13402323 27.11328125 390.4152832 C25.61727641 390.44142261 24.12115832 390.46159445 22.625 390.4765625 C21.81323807 390.48635635 21.00147614 390.49615021 20.16511536 390.50624084 C2.20759314 390.67822091 -15.13726763 390.51762603 -32.6875 386.23828125 C-34.01587891 385.92479736 -34.01587891 385.92479736 -35.37109375 385.60498047 C-70.81367292 377.02082895 -101.50203442 358.24325452 -127.6875 333.23828125 C-128.34234375 332.63628906 -128.9971875 332.03429687 -129.671875 331.4140625 C-160.57269996 302.20542557 -182.58324198 253.43950884 -183.86450195 211.0390625 C-183.89064136 209.54305766 -183.9108132 208.04693957 -183.92578125 206.55078125 C-183.94047203 205.33313835 -183.94047203 205.33313835 -183.95545959 204.09089661 C-184.12743966 186.13337439 -183.96684478 168.78851362 -179.6875 151.23828125 C-179.37401611 149.90990234 -179.37401611 149.90990234 -179.05419922 148.5546875 C-170.4700477 113.11210833 -151.69247327 82.42374683 -126.6875 56.23828125 C-126.08550781 55.5834375 -125.48351562 54.92859375 -124.86328125 54.25390625 C-94.4024525 22.02834435 -44.09157996 0.44110631 0 0 Z " fill="#FBFBFB" transform="translate(183.6875,-0.23828125)"/>
<path d="M0 0 C0.8560936 -0.00525696 1.71218719 -0.01051392 2.59422302 -0.01593018 C5.41277536 -0.02908955 8.23075871 -0.02040493 11.04931641 -0.01025391 C13.01697904 -0.01227618 14.98464095 -0.0151889 16.95230103 -0.01895142 C21.07292834 -0.02336959 25.19336028 -0.01696136 29.31396484 -0.00292969 C34.58187657 0.01413929 39.84932895 0.00433221 45.11722374 -0.01364708 C49.18028181 -0.0245178 53.24323206 -0.02102311 57.30629349 -0.0132637 C59.24786051 -0.01126961 61.18943749 -0.01369303 63.13099289 -0.02070236 C65.85191289 -0.02836852 68.57210275 -0.01663973 71.29296875 0 C72.086996 -0.00607269 72.88102325 -0.01214539 73.69911194 -0.0184021 C81.90424926 0.07399995 88.35855467 2.47085936 94.27587891 8.38818359 C98.79265096 14.62621202 100.4315066 19.34443651 100.33837891 27.07568359 C100.31775391 29.48880859 100.29712891 31.90193359 100.27587891 34.38818359 C94.99587891 34.38818359 89.71587891 34.38818359 84.27587891 34.38818359 C83.69837891 33.27443359 83.12087891 32.16068359 82.52587891 31.01318359 C81.27698553 28.85916888 80.42615079 27.50736474 78.46337891 25.95068359 C73.93517302 24.78628779 70.56640359 24.64254711 66.46337891 27.01318359 C63.98762383 29.70114625 63.15517633 31.87099388 62.27587891 35.38818359 C61.64681641 35.39076172 61.01775391 35.39333984 60.36962891 35.39599609 C54.44343408 35.66374586 50.76201317 36.80950146 46.06494141 40.42724609 C41.35604913 45.58852104 39.67635214 50.21574752 39.74243164 57.12426758 C39.73381607 57.86346436 39.7252005 58.60266113 39.71632385 59.36425781 C39.6937725 61.78796224 39.70038231 64.2105001 39.70947266 66.63427734 C39.70423205 68.33147013 39.69795397 70.02866001 39.69068909 71.72584534 C39.68030477 75.27562201 39.68481753 78.82499733 39.69946289 82.37475586 C39.71664383 86.90869303 39.69315452 91.44136202 39.65797329 95.97515774 C39.6359411 99.47809641 39.63745481 102.98073438 39.6457386 106.48372078 C39.64655502 108.15456597 39.63975108 109.82543393 39.62496758 111.49621391 C39.14090402 122.79834811 39.14090402 122.79834811 43.64010525 132.73980331 C48.20664337 137.34153495 53.03811276 139.93365713 59.53852844 140.07374573 C60.28587753 140.06512009 61.03322662 140.05649445 61.80322266 140.04760742 C62.61393723 140.05809113 63.42465179 140.06857483 64.25993347 140.07937622 C66.91148051 140.10793509 69.56170683 140.10185763 72.21337891 140.09521484 C74.06284201 140.10834156 75.9122908 140.12364876 77.76171875 140.14103699 C82.60817064 140.18078608 87.45424663 140.19107092 92.30084229 140.19506836 C97.254876 140.20441885 102.2086906 140.24184438 107.16259766 140.27685547 C116.86701459 140.34132852 126.57126652 140.3746529 136.27587891 140.38818359 C128.98773232 158.96063445 116.50109604 175.322425 103.46337891 190.26318359 C103.01953857 190.79363281 102.57569824 191.32408203 102.1184082 191.87060547 C100.16586597 194.04506919 98.97980729 195.34606822 95.99072266 195.52490234 C91.96360986 193.83872994 88.35366992 191.62768819 84.65087891 189.32568359 C82.86110908 188.23226155 81.07070962 187.13986966 79.27978516 186.04833984 C78.3170166 185.45939941 77.35424805 184.87045898 76.36230469 184.26367188 C71.36688114 181.22816771 66.3358453 178.2528752 61.30426025 175.27786255 C59.65477434 174.30244625 58.00608127 173.32568958 56.35742188 172.34887695 C47.34161994 167.00929528 38.30940219 161.69771069 29.27587891 156.38818359 C33.87524052 186.618647 33.87524052 186.618647 38.83544922 216.79150391 C39.51106644 220.77479921 40.16838367 224.76112119 40.82666016 228.74731445 C41.19700109 230.92447633 41.60622783 233.09498636 42.02587891 235.26318359 C41.12341592 239.02344605 40.44414077 239.35751911 37.27587891 241.38818359 C21.25858958 249.89879459 5.20553126 256.4999866 -13.09912109 256.63818359 C-14.25903564 256.6520813 -14.25903564 256.6520813 -15.44238281 256.66625977 C-16.18246582 256.66215088 -16.92254883 256.65804199 -17.68505859 256.65380859 C-18.34296387 256.65155273 -19.00086914 256.64929688 -19.67871094 256.64697266 C-21.72412109 256.38818359 -21.72412109 256.38818359 -26.72412109 254.38818359 C-26.72412109 244.15818359 -26.72412109 233.92818359 -26.72412109 223.38818359 C-31.34412109 223.38818359 -35.96412109 223.38818359 -40.72412109 223.38818359 C-38.33479816 213.11009054 -35.48548438 203.25405451 -31.72412109 193.38818359 C-40.47798492 202.36968927 -47.17460907 212.13975717 -52.72412109 223.38818359 C-59.51916302 223.51569689 -66.31389272 223.60283217 -73.10986328 223.6628418 C-75.4182488 223.68787676 -77.72655593 223.72191513 -80.03466797 223.76538086 C-83.36624575 223.82651733 -86.69676922 223.85450466 -90.02880859 223.87646484 C-91.55911209 223.91517448 -91.55911209 223.91517448 -93.12033081 223.95466614 C-101.21349691 223.95778411 -107.83890494 221.98213115 -113.8757019 216.39790344 C-120.22252979 209.69995621 -122.17804349 203.37544594 -122.12817383 194.36694336 C-122.13503708 193.49119659 -122.14190033 192.61544983 -122.14897156 191.71316528 C-122.16718522 188.83513913 -122.16340984 185.95766094 -122.15771484 183.07958984 C-122.16227922 181.06851526 -122.16758556 179.05744223 -122.17359924 177.04637146 C-122.18251966 172.83757173 -122.18011931 168.62896186 -122.17016602 164.42016602 C-122.1586773 159.03897299 -122.17889202 153.65843628 -122.20808315 148.27732944 C-122.22646964 144.12590911 -122.2261478 139.97464535 -122.22044563 135.8231945 C-122.22029272 133.83975237 -122.22631204 131.85629942 -122.23873711 129.87289619 C-122.25369172 127.09445689 -122.24293741 124.31722119 -122.22583008 121.53881836 C-122.23549805 120.72766068 -122.24516602 119.91650299 -122.25512695 119.08076477 C-122.16293371 111.89431811 -119.67946249 105.76832661 -114.53662109 100.63818359 C-113.77285156 99.84154297 -113.77285156 99.84154297 -112.99365234 99.02880859 C-104.10157388 92.60080007 -95.19070595 92.85643091 -84.65771484 92.99755859 C-83.01148673 93.00503096 -81.36524964 93.01071918 -79.7190094 93.01470947 C-75.41326784 93.0298876 -71.10807713 93.06910036 -66.80255127 93.11352539 C-62.39822844 93.15464828 -57.99381548 93.17275661 -53.58935547 93.19287109 C-44.96735959 93.23560357 -36.34580911 93.30375812 -27.72412109 93.38818359 C-27.73744476 92.51280945 -27.75076843 91.6374353 -27.76449585 90.73553467 C-27.88529242 82.43949238 -27.97635745 74.1437503 -28.03499413 65.84702682 C-28.06615494 61.58269126 -28.1083429 57.31908928 -28.17675781 53.05517578 C-28.24250277 48.93131677 -28.27794145 44.80815811 -28.29338455 40.683815 C-28.30437318 39.11944825 -28.32582897 37.55511485 -28.35850143 35.99105072 C-28.57456684 25.20760585 -27.50678571 15.72251882 -19.87484741 7.36248779 C-13.87908296 1.78051101 -8.02126888 -0.06103519 0 0 Z " fill="#285FAA" transform="translate(159.72412109375,42.61181640625)"/>
<path d="M0 0 C0.8560936 -0.00525696 1.71218719 -0.01051392 2.59422302 -0.01593018 C5.41277536 -0.02908955 8.23075871 -0.02040493 11.04931641 -0.01025391 C13.01697904 -0.01227618 14.98464095 -0.0151889 16.95230103 -0.01895142 C21.07292834 -0.02336959 25.19336028 -0.01696136 29.31396484 -0.00292969 C34.58187657 0.01413929 39.84932895 0.00433221 45.11722374 -0.01364708 C49.18028181 -0.0245178 53.24323206 -0.02102311 57.30629349 -0.0132637 C59.24786051 -0.01126961 61.18943749 -0.01369303 63.13099289 -0.02070236 C65.85191289 -0.02836852 68.57210275 -0.01663973 71.29296875 0 C72.086996 -0.00607269 72.88102325 -0.01214539 73.69911194 -0.0184021 C81.90424926 0.07399995 88.35855467 2.47085936 94.27587891 8.38818359 C98.79265096 14.62621202 100.4315066 19.34443651 100.33837891 27.07568359 C100.31775391 29.48880859 100.29712891 31.90193359 100.27587891 34.38818359 C94.99587891 34.38818359 89.71587891 34.38818359 84.27587891 34.38818359 C83.69837891 33.27443359 83.12087891 32.16068359 82.52587891 31.01318359 C81.27698553 28.85916888 80.42615079 27.50736474 78.46337891 25.95068359 C73.93517302 24.78628779 70.56640359 24.64254711 66.46337891 27.01318359 C63.98762383 29.70114625 63.15517633 31.87099388 62.27587891 35.38818359 C61.64681641 35.39076172 61.01775391 35.39333984 60.36962891 35.39599609 C54.44343408 35.66374586 50.76201317 36.80950146 46.06494141 40.42724609 C41.23518958 45.72099154 39.67911595 50.35644147 39.82177734 57.43481445 C39.82119324 58.20636871 39.82060913 58.97792297 39.82000732 59.77285767 C39.82277387 62.30005321 39.85379609 64.8260402 39.88525391 67.35302734 C39.89272143 69.11421566 39.89841195 70.87541232 39.90240479 72.63661194 C39.91762095 77.2547226 39.95686766 81.87232389 40.0012207 86.49023438 C40.04226048 91.20940258 40.06043434 95.9286537 40.08056641 100.64794922 C40.12336619 109.89491686 40.19156838 119.14150774 40.27587891 128.38818359 C38.51156794 128.39834169 36.74724009 128.40559704 34.98291016 128.41162109 C34.00040283 128.41597168 33.01789551 128.42032227 32.00561523 128.42480469 C20.98762396 128.27699155 12.50486009 123.59850893 4.80859375 115.92529297 C2.39792632 113.41269959 0.08163133 110.83712254 -2.21630859 108.22021484 C-7.44907656 102.31093638 -12.62661169 96.80950545 -20.72412109 95.38818359 C-23.32729821 95.2940442 -25.90320833 95.25159222 -28.50610352 95.25878906 C-29.28536697 95.25703674 -30.06463043 95.25528442 -30.86750793 95.253479 C-33.43822468 95.2490844 -36.00887243 95.25198921 -38.57958984 95.25537109 C-40.36509718 95.25469757 -42.15060443 95.25372714 -43.93611145 95.25247192 C-47.67429479 95.25099837 -51.41245421 95.25313931 -55.15063477 95.2578125 C-59.95281714 95.26352198 -64.75494378 95.26022093 -69.55712414 95.25424004 C-73.24156621 95.25063576 -76.92599494 95.25177217 -80.61043739 95.25436783 C-82.38195108 95.25503683 -84.15346596 95.25420961 -85.92497826 95.25188828 C-88.39345919 95.2493626 -90.86184822 95.25320054 -93.33032227 95.25878906 C-94.06850189 95.25676483 -94.80668152 95.2547406 -95.56723022 95.25265503 C-98.93117813 94.96966412 -98.93117813 94.96966412 -101.72412109 96.38818359 C-103.39029224 96.42882191 -105.05800204 96.4309046 -106.72412109 96.38818359 C-104.05285075 93.71691325 -102.29681247 93.40990813 -98.55403137 93.26792908 C-97.24609116 93.27014969 -95.93815094 93.2723703 -94.59057617 93.2746582 C-93.86837387 93.27451218 -93.14617157 93.27436615 -92.40208435 93.2742157 C-90.01590975 93.27491214 -87.6298133 93.28269199 -85.24365234 93.29052734 C-83.58884219 93.29239248 -81.93403148 93.29381593 -80.27922058 93.29481506 C-75.92431106 93.29863274 -71.56943491 93.30845665 -67.21453857 93.31951904 C-62.77047171 93.32974926 -58.32639946 93.33431614 -53.88232422 93.33935547 C-45.16290787 93.35007957 -36.44351863 93.36714702 -27.72412109 93.38818359 C-27.73744476 92.51280945 -27.75076843 91.6374353 -27.76449585 90.73553467 C-27.88529242 82.43949238 -27.97635745 74.1437503 -28.03499413 65.84702682 C-28.06615494 61.58269126 -28.1083429 57.31908928 -28.17675781 53.05517578 C-28.24250277 48.93131677 -28.27794145 44.80815811 -28.29338455 40.683815 C-28.30437318 39.11944825 -28.32582897 37.55511485 -28.35850143 35.99105072 C-28.57456684 25.20760585 -27.50678571 15.72251882 -19.87484741 7.36248779 C-13.87908296 1.78051101 -8.02126888 -0.06103519 0 0 Z " fill="#319DCF" transform="translate(159.72412109375,42.61181640625)"/>
<path d="M0 0 C0.33 0 0.66 0 1 0 C1.2651749 8.78469983 0.6684481 16.94992956 -1.0625 25.5625 C-1.28510498 26.6858374 -1.50770996 27.8091748 -1.73706055 28.96655273 C-7.60857986 57.17106536 -20.93077356 82.04185446 -37.90625 105.08203125 C-39.75455501 107.65793395 -41.41716315 110.25540148 -43 113 C-42.31550781 113.24492187 -41.63101563 113.48984375 -40.92578125 113.7421875 C-37.47072071 115.22754063 -34.3586143 117.12405162 -31.1875 119.125 C-30.59001953 119.49753906 -29.99253906 119.87007813 -29.37695312 120.25390625 C-27.91573749 121.1657048 -26.45755415 122.08235976 -25 123 C-28.32535379 125.21690253 -31.59402287 126.24115064 -35.375 127.375 C-36.43170898 127.69827271 -36.43170898 127.69827271 -37.50976562 128.02807617 C-38.96000144 128.47140321 -40.41085358 128.91271894 -41.86230469 129.35205078 C-45.07857579 130.32692327 -48.2888413 131.32092242 -51.5 132.3125 C-53.33321986 132.87536969 -55.16650667 133.43802174 -57 134 C-55.37072052 139.10909863 -52.27868252 142.99648271 -49.125 147.25 C-47.95643593 148.84982575 -46.78848284 150.45009792 -45.62109375 152.05078125 C-45.02409668 152.86627441 -44.42709961 153.68176758 -43.81201172 154.52197266 C-40.91773076 158.48006371 -38.04269447 162.45113269 -35.1875 166.4375 C-34.66623535 167.15260742 -34.1449707 167.86771484 -33.60791016 168.60449219 C-33.13272949 169.2699707 -32.65754883 169.93544922 -32.16796875 170.62109375 C-31.74797607 171.2030249 -31.3279834 171.78495605 -30.89526367 172.38452148 C-30 174 -30 174 -30 177 C-31.49707031 178.44213867 -31.49707031 178.44213867 -33.578125 179.91796875 C-34.32707031 180.44970703 -35.07601562 180.98144531 -35.84765625 181.52929688 C-36.64042969 182.07650391 -37.43320312 182.62371094 -38.25 183.1875 C-39.02730469 183.74630859 -39.80460938 184.30511719 -40.60546875 184.88085938 C-46.48995536 189 -46.48995536 189 -51 189 C-52.86608728 186.71956768 -54.4242308 184.53364458 -56 182.0625 C-56.96744135 180.59939426 -57.93624047 179.1371856 -58.90625 177.67578125 C-59.40898437 176.91088379 -59.91171875 176.14598633 -60.4296875 175.35791016 C-63.04272806 171.43428676 -65.77172384 167.59397017 -68.5 163.75 C-69.00402344 163.03593994 -69.50804687 162.32187988 -70.02734375 161.58618164 C-71.92602237 158.89992444 -73.81786287 156.23307379 -75.84375 153.640625 C-77 152 -77 152 -77 150 C-81.92580047 153.77326593 -85.43327814 157.86433241 -89.0625 162.875 C-89.56587891 163.55691406 -90.06925781 164.23882812 -90.58789062 164.94140625 C-93.76923942 169.26277266 -96.88916669 173.62770952 -100 178 C-102.00293347 174.99559979 -102.49271626 173.29006055 -103.125 169.8125 C-103.29257813 168.91144531 -103.46015625 168.01039063 -103.6328125 167.08203125 C-103.75398438 166.39496094 -103.87515625 165.70789063 -104 165 C-109.98653835 166.72630364 -115.37384288 169.56448272 -120.9375 172.3125 C-136.21572603 179.73176942 -151.16828581 185.42398371 -168.375 185.3125 C-169.2918457 185.30686035 -170.20869141 185.3012207 -171.15332031 185.29541016 C-184.11811172 185.06381413 -192.75916063 181.92432312 -202.75 173.75 C-211.58584412 162.95063497 -211.92257055 151.33385786 -211 138 C-210.24308229 133.65283748 -208.83638477 130.00225281 -207 126 C-206.65662598 125.23139648 -206.31325195 124.46279297 -205.95947266 123.67089844 C-204.03074479 119.36803905 -202.0618779 115.08408039 -200.0234375 110.83203125 C-199.51176025 109.76045776 -199.51176025 109.76045776 -198.98974609 108.66723633 C-198 107 -198 107 -196 106 C-196.19335938 106.556875 -196.38671875 107.11375 -196.5859375 107.6875 C-196.84632813 108.450625 -197.10671875 109.21375 -197.375 110 C-197.63023437 110.7425 -197.88546875 111.485 -198.1484375 112.25 C-201.3156069 122.4779232 -203.62481476 134.92174663 -199.3125 145.1875 C-198.2236348 147.20439916 -198.2236348 147.20439916 -197 149 C-196.29875 150.0725 -195.5975 151.145 -194.875 152.25 C-185.79754053 160.93278731 -175.76762403 161.28211074 -163.9453125 161.14453125 C-158.71432934 161.02516002 -154.00675784 160.57074756 -149 159 C-147.11474609 158.4121875 -147.11474609 158.4121875 -145.19140625 157.8125 C-134.95524483 154.46524694 -125.51825474 149.99894902 -116 145 C-110.2494382 142 -110.2494382 142 -108 142 C-108.15033691 141.10464035 -108.30067383 140.2092807 -108.45556641 139.28678894 C-109.87074666 130.85577636 -111.283596 122.42437723 -112.69381714 113.99253368 C-113.41893661 109.65748391 -114.14496193 105.32258989 -114.87304688 100.98803711 C-115.57543048 96.80629088 -116.27544837 92.62415496 -116.97381592 88.44173622 C-117.24090051 86.84477899 -117.50884252 85.24796492 -117.77764893 83.65129662 C-118.15350445 81.41788579 -118.52632998 79.18398905 -118.8984375 76.94995117 C-119.11161621 75.67754074 -119.32479492 74.40513031 -119.54443359 73.09416199 C-120 70 -120 70 -120 67 C-116.36105072 68.36849725 -113.0675892 70.00460642 -109.703125 71.94921875 C-108.67340576 72.5431543 -107.64368652 73.13708984 -106.58276367 73.74902344 C-104.93304565 74.70856934 -104.93304565 74.70856934 -103.25 75.6875 C-102.11216064 76.3465332 -100.97432129 77.00556641 -99.80200195 77.68457031 C-88.61355842 84.1776378 -77.5205555 90.8287387 -66.44995117 97.52050781 C-65.64146729 98.00874023 -64.8329834 98.49697266 -64 99 C-63.11280273 99.56847656 -62.22560547 100.13695312 -61.31152344 100.72265625 C-59.12142623 102.27712308 -59.12142623 102.27712308 -56.97265625 101.484375 C-26.7178899 78.71841221 -8.66702413 35.28169115 0 0 Z " fill="#1F1F1F" transform="translate(316,143)"/>
<path d="M0 0 C10.23 0 20.46 0 31 0 C31.495 5.445 31.495 5.445 32 11 C34.64758278 14.25945493 34.64758278 14.25945493 37.9375 14.375 C41.39049441 13.95218436 42.5150234 13.37178926 45 11 C45.90561146 8.5170581 45.90561146 8.5170581 46.25 5.8125 C46.39953125 4.91144531 46.5490625 4.01039062 46.703125 3.08203125 C46.80109375 2.39496094 46.8990625 1.70789063 47 1 C56.71428571 0.42857143 56.71428571 0.42857143 61 4 C65.86728509 9.06087029 67.12064071 12.69321714 67.17700195 19.67114258 C67.18357315 20.34469284 67.19014435 21.0182431 67.19691467 21.71220398 C67.21661339 23.93964759 67.2283025 26.16702389 67.23828125 28.39453125 C67.24235678 29.15657049 67.2464323 29.91860973 67.25063133 30.70374107 C67.27147739 34.73714297 67.28578546 38.77051099 67.29516602 42.80395508 C67.30622799 46.96356095 67.34062906 51.1226315 67.38033772 55.28204823 C67.40651844 58.48631261 67.4148591 61.6904497 67.41844749 64.89481163 C67.42330966 66.42777815 67.43491323 67.96073912 67.45348549 69.49360085 C67.47790985 71.64305344 67.47690695 73.79112412 67.4699707 75.94067383 C67.47583694 77.16184402 67.48170319 78.38301422 67.48774719 79.64118958 C66.73697766 84.81127063 64.24880001 87.87303413 60.4375 91.3125 C56.17641566 94.26248147 52.31020898 94.15879702 47.3190918 94.17700195 C46.14783249 94.18685875 46.14783249 94.18685875 44.95291138 94.19691467 C42.36834618 94.21662833 39.78383901 94.22830563 37.19921875 94.23828125 C35.87412261 94.24439454 35.87412261 94.24439454 34.52225685 94.25063133 C29.84695291 94.27148333 25.17167826 94.28578909 20.49633789 94.29516602 C15.67088978 94.30623169 10.84590263 94.34063579 6.02061749 94.38033772 C2.30679982 94.40649801 -1.40690786 94.4148573 -5.12080956 94.41844749 C-6.89938662 94.42331458 -8.67795874 94.43493208 -10.45644569 94.45348549 C-12.94830376 94.4778661 -15.43896707 94.47691431 -17.9309082 94.4699707 C-18.66203323 94.48278076 -19.39315826 94.49559082 -20.1464386 94.50878906 C-26.54835998 94.4439365 -29.88852206 92.06859648 -34.3396759 87.70783997 C-36.49649035 84.19026869 -36.52638573 81.78940176 -36.56518555 77.67456055 C-36.58292778 76.59546417 -36.58292778 76.59546417 -36.60102844 75.49456787 C-36.63382704 73.12497143 -36.63687254 70.75652699 -36.63671875 68.38671875 C-36.64704003 66.73150671 -36.65810391 65.07629916 -36.6698761 63.4210968 C-36.68929379 59.95354441 -36.69273544 56.48639519 -36.6862793 53.01879883 C-36.68029005 48.58980409 -36.72447606 44.16291036 -36.78216839 39.73434734 C-36.81926801 36.31544841 -36.82406285 32.89705084 -36.81989479 29.47797585 C-36.82275577 27.8461611 -36.8367435 26.21432436 -36.86237144 24.58270836 C-37.0636822 10.25911567 -37.0636822 10.25911567 -32.57348633 4.99926758 C-28.78832466 1.46879203 -26.53683155 0.8774787 -21.375 0.9375 C-19.87066406 0.95103516 -19.87066406 0.95103516 -18.3359375 0.96484375 C-17.56507813 0.97644531 -16.79421875 0.98804687 -16 1 C-15.96261719 1.60328125 -15.92523438 2.2065625 -15.88671875 2.828125 C-15.59857439 6.33105642 -15.29548065 9.32696075 -13.875 12.5625 C-11.9302166 14.29556925 -11.9302166 14.29556925 -8.5625 14.5 C-5.06593716 14.23683467 -5.06593716 14.23683467 -2.625 12.625 C-0.16956611 9.08781529 -0.16956611 9.08781529 0 0 Z " fill="#FAFAF9" transform="translate(241,83)"/>
<path d="M0 0 C8.57746274 -0.13024347 14.48742354 2.46877067 21 8 C23.64474124 10.81429834 26.07054757 13.8045898 28.51904297 16.7890625 C36.10212936 25.91716907 44.10717186 31.33348905 56 33 C58.1659317 33.11846951 60.33267947 33.22296306 62.5 33.3125 C65.515625 33.50390625 65.515625 33.50390625 68 34 C70.25 36.75 70.25 36.75 72 40 C77.15668048 44.41501117 81.87519798 45.73620056 88.52734375 45.65942383 C89.33805832 45.66990753 90.14877289 45.68039124 90.98405457 45.69119263 C93.63560161 45.71975149 96.28582793 45.71367404 98.9375 45.70703125 C100.7869631 45.72015796 102.6364119 45.73546517 104.48583984 45.75285339 C109.33229174 45.79260249 114.17836772 45.80288733 119.02496338 45.80688477 C123.97899709 45.81623526 128.93281169 45.85366079 133.88671875 45.88867188 C143.59113569 45.95314493 153.29538761 45.98646931 163 46 C155.71185341 64.57245085 143.22521713 80.9342414 130.1875 95.875 C129.5217395 96.67067383 129.5217395 96.67067383 128.8425293 97.48242188 C126.88998706 99.6568856 125.70392838 100.95788463 122.71484375 101.13671875 C118.68773096 99.45054634 115.07779102 97.23950459 111.375 94.9375 C109.58523017 93.84407796 107.79483072 92.75168607 106.00390625 91.66015625 C105.0411377 91.07121582 104.07836914 90.48227539 103.08642578 89.87548828 C97.52316473 86.49493367 91.91600971 83.18820846 86.3125 79.875 C85.15563597 79.19009772 83.99881603 78.50512097 82.84204102 77.82006836 C73.90480095 72.52950423 64.95769303 67.25585374 56 62 C56.09087891 62.55349121 56.18175781 63.10698242 56.27539062 63.67724609 C56.69171633 66.2419192 57.09589299 68.80837439 57.5 71.375 C57.64308594 72.24511719 57.78617188 73.11523438 57.93359375 74.01171875 C58.87375971 80.05564276 59.17771303 85.88700101 59 92 C58.24976563 92.21914062 57.49953125 92.43828125 56.7265625 92.6640625 C45.09471208 96.26788517 35.23406572 101.55852932 27.6875 111.3125 C21.5879875 118.87387913 15.51027599 125.11013713 6 128 C2.4375 128.25 2.4375 128.25 0 128 C0.89369523 117.27565723 6.41473271 110.38378363 14 103 C15.68949682 101.66334017 17.39776654 100.35002616 19.125 99.0625 C28.01367792 92.20275943 32.95644828 81.83361492 35.75 71.125 C36.8403612 57.49548504 35.03910617 46.86727384 26.546875 35.7890625 C23.01030151 31.91618908 19.05562397 28.67375695 15.01660156 25.34204102 C6.90876506 18.56752744 3.05732978 11.07120398 0 1 C0 0.67 0 0.34 0 0 Z " fill="#225576" transform="translate(133,137)"/>
<path d="M0 0 C1.91399312 -0.025437 3.82808445 -0.04355253 5.7421875 -0.05859375 C6.80808105 -0.06947021 7.87397461 -0.08034668 8.97216797 -0.09155273 C17.1089714 0.15448027 21.80747609 4.13367226 27.80078125 9.35546875 C32.7611392 15.3202331 33.44550131 21.68055847 33.40405273 29.13476562 C33.41091599 30.01065842 33.41777924 30.88655121 33.42485046 31.78898621 C33.4430341 34.66157604 33.43929354 37.53361541 33.43359375 40.40625 C33.43815912 42.41589534 33.44346575 44.42553913 33.44947815 46.43518066 C33.45839233 50.63800416 33.45600483 54.84063745 33.44604492 59.04345703 C33.43454891 64.41677439 33.45478529 69.78943517 33.48396206 75.16266632 C33.50234679 79.30979549 33.50202719 83.4567679 33.49632454 87.60392761 C33.49617165 89.58457867 33.50218914 91.56524058 33.51461601 93.54585266 C33.52956975 96.31939402 33.51881748 99.09172957 33.50170898 101.86523438 C33.51137695 102.67482101 33.52104492 103.48440765 33.53100586 104.31852722 C33.43932539 111.45153027 30.94629958 117.57466745 25.9375 122.75 C17.47475881 130.37021165 6.40796642 130.93326106 -4.5 131 C-5.19955811 131.0093457 -5.89911621 131.01869141 -6.61987305 131.02832031 C-20.19925458 131.09661301 -29.82571064 127.0652436 -40 118 C-39.1377951 113.83863281 -37.02377542 111.08299636 -34.5 107.75 C-10.82395733 75.44051623 -0.51993068 39.67608966 0 0 Z " fill="#34ACD8" transform="translate(322,136)"/>
<path d="M0 0 C4.75864088 5.85935454 9.18798738 11.94994744 13.6015625 18.07080078 C14.49526263 19.30369506 15.39567853 20.53176707 16.3046875 21.75341797 C17.47154365 23.32207769 18.61156182 24.91059599 19.75 26.5 C20.40484375 27.3971875 21.0596875 28.294375 21.734375 29.21875 C23.67171277 33.47610954 22.67849682 36.85334338 21.30859375 41.1875 C17.82548073 48.43487417 12.43033004 53.25774644 5.00860023 56.35858154 C1.49301939 57.48123323 -1.95894916 57.43381698 -5.62231445 57.41992188 C-6.45583435 57.42839142 -7.28935425 57.43686096 -8.14813232 57.44558716 C-10.88667322 57.46886708 -13.62464914 57.46998134 -16.36328125 57.46875 C-18.27988404 57.4758579 -20.19648473 57.48355781 -22.11308289 57.49182129 C-26.12517209 57.50524609 -30.13706459 57.50684425 -34.14916992 57.50097656 C-39.27022365 57.49508773 -44.39032697 57.52564769 -49.51119709 57.56609344 C-53.4688366 57.5920478 -57.42624976 57.59484075 -61.38396263 57.59120178 C-63.27086967 57.59288633 -65.15778792 57.60246432 -67.04461098 57.62034607 C-78.79124352 57.71941251 -87.45977485 57.40279469 -96.875 49.625 C-100.69969983 44.9003708 -103.05558776 41.31298166 -103.609375 35.265625 C-103.68639648 34.46415039 -103.76341797 33.66267578 -103.84277344 32.83691406 C-103.92060059 31.9276416 -103.92060059 31.9276416 -104 31 C-103.33170166 31.02094727 -102.66340332 31.04189453 -101.97485352 31.06347656 C-88.09002386 31.43986896 -75.26267299 31.37678133 -62 27 C-61.33210449 26.78037598 -60.66420898 26.56075195 -59.97607422 26.33447266 C-51.63696452 23.51755609 -43.6321244 20.07748062 -35.78271484 16.09643555 C-31.31845806 13.89384731 -31.31845806 13.89384731 -28 15 C-26.77100654 21.06815522 -25.72439786 26.79895188 -26 33 C-22.28004738 29.53568393 -19.37577601 25.63844108 -16.375 21.5625 C-15.31578911 20.13620983 -14.2558814 18.71043691 -13.1953125 17.28515625 C-12.66454102 16.57117676 -12.13376953 15.85719727 -11.58691406 15.12158203 C-9.17087345 11.89152158 -6.71446296 8.69319234 -4.25 5.5 C-3.81993652 4.94256104 -3.38987305 4.38512207 -2.94677734 3.81079102 C-1.9653497 2.53988482 -0.9828159 1.26983293 0 0 Z " fill="#2956A6" transform="translate(237,302)"/>
<path d="M0 0 C10.23 0 20.46 0 31 0 C31.495 5.445 31.495 5.445 32 11 C34.64758278 14.25945493 34.64758278 14.25945493 37.9375 14.375 C41.39049441 13.95218436 42.5150234 13.37178926 45 11 C45.90561146 8.5170581 45.90561146 8.5170581 46.25 5.8125 C46.39953125 4.91144531 46.5490625 4.01039062 46.703125 3.08203125 C46.80109375 2.39496094 46.8990625 1.70789063 47 1 C56.71428571 0.42857143 56.71428571 0.42857143 61 4 C65.86728509 9.06087029 67.12064071 12.69321714 67.17700195 19.67114258 C67.18357315 20.34469284 67.19014435 21.0182431 67.19691467 21.71220398 C67.21661339 23.93964759 67.2283025 26.16702389 67.23828125 28.39453125 C67.24235678 29.15657049 67.2464323 29.91860973 67.25063133 30.70374107 C67.27147739 34.73714297 67.28578546 38.77051099 67.29516602 42.80395508 C67.30622799 46.96356095 67.34062906 51.1226315 67.38033772 55.28204823 C67.40651844 58.48631261 67.4148591 61.6904497 67.41844749 64.89481163 C67.42330966 66.42777815 67.43491323 67.96073912 67.45348549 69.49360085 C67.47790985 71.64305344 67.47690695 73.79112412 67.4699707 75.94067383 C67.47583694 77.16184402 67.48170319 78.38301422 67.48774719 79.64118958 C66.73697766 84.81127063 64.24880001 87.87303413 60.4375 91.3125 C56.17641566 94.26248147 52.31020898 94.15879702 47.3190918 94.17700195 C46.14783249 94.18685875 46.14783249 94.18685875 44.95291138 94.19691467 C42.36834618 94.21662833 39.78383901 94.22830563 37.19921875 94.23828125 C35.87412261 94.24439454 35.87412261 94.24439454 34.52225685 94.25063133 C29.84695291 94.27148333 25.17167826 94.28578909 20.49633789 94.29516602 C15.67088978 94.30623169 10.84590263 94.34063579 6.02061749 94.38033772 C2.30679982 94.40649801 -1.40690786 94.4148573 -5.12080956 94.41844749 C-6.89938662 94.42331458 -8.67795874 94.43493208 -10.45644569 94.45348549 C-12.94830376 94.4778661 -15.43896707 94.47691431 -17.9309082 94.4699707 C-18.66203323 94.48278076 -19.39315826 94.49559082 -20.1464386 94.50878906 C-26.54835998 94.4439365 -29.88852206 92.06859648 -34.3396759 87.70783997 C-36.49649035 84.19026869 -36.52638573 81.78940176 -36.56518555 77.67456055 C-36.58292778 76.59546417 -36.58292778 76.59546417 -36.60102844 75.49456787 C-36.63382704 73.12497143 -36.63687254 70.75652699 -36.63671875 68.38671875 C-36.64704003 66.73150671 -36.65810391 65.07629916 -36.6698761 63.4210968 C-36.68929379 59.95354441 -36.69273544 56.48639519 -36.6862793 53.01879883 C-36.68029005 48.58980409 -36.72447606 44.16291036 -36.78216839 39.73434734 C-36.81926801 36.31544841 -36.82406285 32.89705084 -36.81989479 29.47797585 C-36.82275577 27.8461611 -36.8367435 26.21432436 -36.86237144 24.58270836 C-37.0636822 10.25911567 -37.0636822 10.25911567 -32.57348633 4.99926758 C-28.78832466 1.46879203 -26.53683155 0.8774787 -21.375 0.9375 C-19.87066406 0.95103516 -19.87066406 0.95103516 -18.3359375 0.96484375 C-17.56507813 0.97644531 -16.79421875 0.98804687 -16 1 C-15.96261719 1.60328125 -15.92523438 2.2065625 -15.88671875 2.828125 C-15.59857439 6.33105642 -15.29548065 9.32696075 -13.875 12.5625 C-11.9302166 14.29556925 -11.9302166 14.29556925 -8.5625 14.5 C-5.06593716 14.23683467 -5.06593716 14.23683467 -2.625 12.625 C-0.16956611 9.08781529 -0.16956611 9.08781529 0 0 Z M-30 28 C-30.103125 36.806875 -30.20625 45.61375 -30.3125 54.6875 C-30.35802002 57.46115967 -30.40354004 60.23481934 -30.45043945 63.0925293 C-30.46504459 65.29474681 -30.47778519 67.49697782 -30.48828125 69.69921875 C-30.51386108 70.83959595 -30.53944092 71.97997314 -30.5657959 73.15490723 C-30.56640015 74.25065063 -30.56700439 75.34639404 -30.56762695 76.4753418 C-30.57873001 77.42354294 -30.58983307 78.37174408 -30.60127258 79.34867859 C-29.72334018 83.21993608 -28.16155743 84.6495761 -25 87 C-22.18694394 87.50072731 -19.97546758 87.69607845 -17.16796875 87.6628418 C-16.00849228 87.67839363 -16.00849228 87.67839363 -14.82559204 87.69425964 C-12.27901609 87.72129007 -9.73416705 87.71167817 -7.1875 87.69921875 C-5.41299968 87.70512888 -3.63850335 87.71237611 -1.86401367 87.72090149 C1.85161137 87.73277487 5.56663712 87.72608535 9.28222656 87.70678711 C14.04090121 87.68389419 18.79779104 87.71068634 23.55628967 87.75184917 C27.2195649 87.77743856 30.88241364 87.77484445 34.54574585 87.76395607 C36.30001446 87.76247037 38.0543159 87.77014809 39.8085022 87.78720665 C42.26275537 87.80720029 44.71386017 87.78877841 47.16796875 87.76049805 C48.25130997 87.78107269 48.25130997 87.78107269 49.35653687 87.80206299 C52.110464 87.73872328 54.33990166 87.49952545 56.57443523 85.8085556 C59.58824048 82.51108988 60.62017041 79.84624633 60.56762695 75.45361328 C60.56702271 74.37829346 60.56641846 73.30297363 60.5657959 72.19506836 C60.54021606 71.08139893 60.51463623 69.96772949 60.48828125 68.8203125 C60.48324585 67.78447021 60.47821045 66.74862793 60.47302246 65.68139648 C60.44695264 61.82898093 60.37714558 57.97696134 60.3125 54.125 C60.209375 45.50375 60.10625 36.8825 60 28 C30.3 28 0.6 28 -30 28 Z " fill="#242524" transform="translate(241,83)"/>
<path d="M0 0 C22.44 0 44.88 0 68 0 C60.57444679 18.56388302 48.26033858 34.89399348 35.1875 49.875 C34.74365967 50.40544922 34.29981934 50.93589844 33.8425293 51.48242188 C32.54296875 52.9296875 32.54296875 52.9296875 30 55 C26.23462861 54.66763588 23.57040729 53.37933378 20.3828125 51.41796875 C19.52816406 50.89783203 18.67351562 50.37769531 17.79296875 49.84179688 C16.91253906 49.29587891 16.03210938 48.74996094 15.125 48.1875 C13.37798263 47.1178712 11.63059357 46.04884921 9.8828125 44.98046875 C9.05426758 44.47177246 8.22572266 43.96307617 7.37207031 43.43896484 C4.28121989 41.56396769 1.15047274 39.77267744 -2 38 C-1.01 37.505 -1.01 37.505 0 37 C-0.28875 36.36835938 -0.5775 35.73671875 -0.875 35.0859375 C-5.45484283 24.04978845 -5.42783758 13.1040072 -1 2 C-0.67 1.34 -0.34 0.68 0 0 Z " fill="#31A0D1" transform="translate(228,183)"/>
<path d="M0 0 C5.3994462 6.5935545 10.25818736 13.59811793 15.22021484 20.52197266 C16.97962359 22.97162955 18.74910954 25.41376421 20.51953125 27.85546875 C21.6176499 29.38248008 22.71532374 30.90981141 23.8125 32.4375 C24.33392578 33.15260742 24.85535156 33.86771484 25.39257812 34.60449219 C25.86759766 35.2699707 26.34261719 35.93544922 26.83203125 36.62109375 C27.25202393 37.2030249 27.6720166 37.78495605 28.10473633 38.38452148 C29 40 29 40 29 43 C27.50292969 44.44213867 27.50292969 44.44213867 25.421875 45.91796875 C24.67292969 46.44970703 23.92398438 46.98144531 23.15234375 47.52929688 C22.35957031 48.07650391 21.56679688 48.62371094 20.75 49.1875 C19.97269531 49.74630859 19.19539063 50.30511719 18.39453125 50.88085938 C12.51004464 55 12.51004464 55 8 55 C6.13391272 52.71956768 4.5757692 50.53364458 3 48.0625 C2.03255865 46.59939426 1.06375953 45.1371856 0.09375 43.67578125 C-0.40898437 42.91088379 -0.91171875 42.14598633 -1.4296875 41.35791016 C-4.04272806 37.43428676 -6.77172384 33.59397017 -9.5 29.75 C-10.00402344 29.03593994 -10.50804687 28.32187988 -11.02734375 27.58618164 C-12.92602237 24.89992444 -14.81786287 22.23307379 -16.84375 19.640625 C-18 18 -18 18 -18 16 C-18.66 15.67 -19.32 15.34 -20 15 C-19.33613281 14.63261719 -18.67226562 14.26523437 -17.98828125 13.88671875 C-14.15278979 11.46509473 -10.70451801 8.66986678 -7.1875 5.8125 C-6.49462891 5.25369141 -5.80175781 4.69488281 -5.08789062 4.11914062 C-3.38968666 2.7488657 -1.69453407 1.37481066 0 0 Z " fill="#2C87C4" transform="translate(257,277)"/>
<path d="M0 0 C0.8269043 2.12548828 0.8269043 2.12548828 1 5 C-0.67461442 7.27593129 -2.22654792 9.04503629 -4.23046875 10.9921875 C-4.77729813 11.54238556 -5.3241275 12.09258362 -5.88752747 12.65945435 C-7.04641505 13.81804309 -8.21279707 14.96917668 -9.38598633 16.11328125 C-11.18293333 17.87053421 -12.94867592 19.65526561 -14.71289062 21.4453125 C-15.8420025 22.56686619 -16.97280739 23.68671857 -18.10546875 24.8046875 C-18.63480515 25.341008 -19.16414154 25.87732849 -19.70951843 26.42990112 C-21.23510742 27.89794922 -21.23510742 27.89794922 -24 30 C-29.05612048 29.80980456 -32.49163765 25.25875554 -36 22 C-36.54914063 21.53851563 -37.09828125 21.07703125 -37.6640625 20.6015625 C-39.0625 19.375 -39.0625 19.375 -41 17 C-40.8125 14.1875 -40.8125 14.1875 -40 12 C-37.7578125 11.2890625 -37.7578125 11.2890625 -35 11 C-32.8671875 12.3984375 -32.8671875 12.3984375 -30.875 14.375 C-27.85811831 17.3291693 -27.85811831 17.3291693 -24 19 C-23.74025391 18.41500732 -23.48050781 17.83001465 -23.21289062 17.22729492 C-21.91575722 14.84530055 -20.5143238 13.27081602 -18.59375 11.36328125 C-17.93246094 10.70392578 -17.27117187 10.04457031 -16.58984375 9.36523438 C-15.55537109 8.34913086 -15.55537109 8.34913086 -14.5 7.3125 C-13.46552734 6.27899414 -13.46552734 6.27899414 -12.41015625 5.22460938 C-5.7624442 -1.36478941 -5.7624442 -1.36478941 0 0 Z " fill="#292828" transform="translate(277,125)"/>
<path d="M0 0 C2.5 0.25 2.5 0.25 4.5 2.25 C4.69856972 5.12342061 4.77828946 7.87861988 4.75 10.75 C4.75773437 11.53503906 4.76546875 12.32007812 4.7734375 13.12890625 C4.75330787 18.99669213 4.75330787 18.99669213 2.5 21.25 C0 21.5 0 21.5 -2.5 21.25 C-5.12723824 18.62276176 -4.76115971 16.70788327 -4.7734375 13.12890625 C-4.76570313 12.34386719 -4.75796875 11.55882813 -4.75 10.75 C-4.75773437 9.96496094 -4.76546875 9.17992188 -4.7734375 8.37109375 C-4.74634845 0.47463484 -4.74634845 0.47463484 0 0 Z " fill="#2F3A40" transform="translate(279.5,72.75)"/>
<path d="M0 0 C3.29714793 0.32971479 4.6226839 0.6226839 7 3 C7.19852102 5.70922801 7.27839477 8.29303179 7.25 11 C7.25773438 11.73734375 7.26546875 12.4746875 7.2734375 13.234375 C7.2533196 18.7466804 7.2533196 18.7466804 5 21 C1.9375 21.1875 1.9375 21.1875 -1 21 C-3.15732833 18.84267167 -2.18520919 14.05201247 -2.1875 11.0625 C-2.19974609 10.22525391 -2.21199219 9.38800781 -2.22460938 8.52539062 C-2.22654297 7.72423828 -2.22847656 6.92308594 -2.23046875 6.09765625 C-2.23457764 5.36039307 -2.23868652 4.62312988 -2.24291992 3.86352539 C-2 2 -2 2 0 0 Z " fill="#39AADB" transform="translate(231,73)"/>
<path d="M0 0 C0.33 0 0.66 0 1 0 C1.33 5.61 1.66 11.22 2 17 C4.97 16.67 7.94 16.34 11 16 C11.33 13.36 11.66 10.72 12 8 C12.33 8 12.66 8 13 8 C13.47138774 12.80815498 13.70477383 15.95351764 10.9375 20.0625 C7.23780272 22.50272587 5.3495345 22.79082445 1 22 C-1.4375 20.0625 -1.4375 20.0625 -3 17 C-3.30936646 13.96719442 -3.23810226 11.03580379 -3 8 C-2.01 8.495 -2.01 8.495 -1 9 C-0.67 6.03 -0.34 3.06 0 0 Z " fill="#EAEEEF" transform="translate(228,76)"/>
<path d="M0 0 C1.876875 -0.04125 3.75375 -0.0825 5.6875 -0.125 C6.74324219 -0.14820313 7.79898437 -0.17140625 8.88671875 -0.1953125 C12.02251859 0.00141271 14.17645373 0.66942346 17 2 C12.04380087 3.65206638 7.1596656 2.49932248 2 2 C2 7.94 2 13.88 2 20 C1.34 20.33 0.68 20.66 0 21 C0 14.07 0 7.14 0 0 Z " fill="#54C7E8" transform="translate(322,136)"/>
<path d="M0 0 C1 2 1 2 0.44140625 3.9453125 C0.15136719 4.66460937 -0.13867188 5.38390625 -0.4375 6.125 C-0.72496094 6.84945312 -1.01242188 7.57390625 -1.30859375 8.3203125 C-1.53675781 8.87460938 -1.76492187 9.42890625 -2 10 C-2.99 9.67 -3.98 9.34 -5 9 C-5.66 10.65 -6.32 12.3 -7 14 C-8.32 13.67 -9.64 13.34 -11 13 C-9.73147606 11.39400651 -8.460089 9.79027425 -7.1875 8.1875 C-6.47980469 7.29417969 -5.77210937 6.40085938 -5.04296875 5.48046875 C-3.43588623 3.52923089 -1.82959577 1.73725024 0 0 Z " fill="#DADFE5" transform="translate(128,235)"/>
<path d="M0 0 C0.33 0 0.66 0 1 0 C1.02717692 2.06242617 1.0464758 4.12495703 1.0625 6.1875 C1.07410156 7.33605469 1.08570313 8.48460937 1.09765625 9.66796875 C1.01192832 12.59300586 0.67849023 15.16316291 0 18 C-0.33 17.01 -0.66 16.02 -1 15 C-1.66 15 -2.32 15 -3 15 C-2.69052329 13.06201479 -2.37731166 11.12462574 -2.0625 9.1875 C-1.88847656 8.10855469 -1.71445312 7.02960938 -1.53515625 5.91796875 C-1 3 -1 3 0 0 Z " fill="#656665" transform="translate(316,143)"/>
<path d="M0 0 C0.33 0.66 0.66 1.32 1 2 C0.2578125 4.20703125 0.2578125 4.20703125 -0.875 6.8125 C-2.3455877 10.21130585 -3.3829229 13.34348995 -4 17 C-4.99 16.34 -5.98 15.68 -7 15 C-5.45454854 9.52067211 -2.84456788 4.88570819 0 0 Z " fill="#3D3F3C" transform="translate(119,249)"/>
<path d="M0 0 C0.33 0 0.66 0 1 0 C1.33 5.94 1.66 11.88 2 18 C1.01 17.67 0.02 17.34 -1 17 C-1.38063221 14.6739143 -1.71269945 12.33944736 -2 10 C-1.67 9.67 -1.34 9.34 -1 9 C-0.76807135 7.48530552 -0.58784762 5.96245438 -0.4375 4.4375 C-0.35371094 3.61121094 -0.26992187 2.78492187 -0.18359375 1.93359375 C-0.12300781 1.29550781 -0.06242188 0.65742187 0 0 Z " fill="#CCEAF6" transform="translate(228,76)"/>
<path d="M0 0 C0.33 0 0.66 0 1 0 C1.66 2.97 2.32 5.94 3 9 C5.31 9.33 7.62 9.66 10 10 C10 10.33 10 10.66 10 11 C7.69 11.66 5.38 12.32 3 13 C0.95204577 11.0373772 0.05023362 9.5722693 -0.19921875 6.73046875 C-0.18858877 4.48045617 -0.12958525 2.24614438 0 0 Z " fill="#DBE7ED" transform="translate(225,84)"/>
<path d="M0 0 C0.66 0.33 1.32 0.66 2 1 C-0.31 3.31 -2.62 5.62 -5 8 C-5.99 7.67 -6.98 7.34 -8 7 C-5.36 4.69 -2.72 2.38 0 0 Z " fill="#43A9D8" transform="translate(145,46)"/>
<path d="M0 0 C0.33 0 0.66 0 1 0 C1.268125 1.093125 1.53625 2.18625 1.8125 3.3125 C2.87663739 6.61692663 3.34654664 7.94960422 6 10 C4.33388095 10.042721 2.66617115 10.04063832 1 10 C0 9 0 9 -0.09765625 6.93359375 C-0.08605469 6.10988281 -0.07445312 5.28617187 -0.0625 4.4375 C-0.05347656 3.61121094 -0.04445312 2.78492187 -0.03515625 1.93359375 C-0.02355469 1.29550781 -0.01195312 0.65742187 0 0 Z " fill="#23A5D7" transform="translate(229,84)"/>
<path d="M0 0 C0.33 1.65 0.66 3.3 1 5 C-3.75 4.25 -3.75 4.25 -6 2 C-2.25 0 -2.25 0 0 0 Z " fill="#2F6173" transform="translate(227,215)"/>
<path d="M0 0 C0.66 0 1.32 0 2 0 C2 2.64 2 5.28 2 8 C0.68 7.34 -0.64 6.68 -2 6 C-1.34 4.02 -0.68 2.04 0 0 Z " fill="#30302F" transform="translate(313,158)"/>
<path d="M0 0 C1.65 0 3.3 0 5 0 C5 0.99 5 1.98 5 3 C3.02 3.33 1.04 3.66 -1 4 C-0.67 2.68 -0.34 1.36 0 0 Z " fill="#2C3133" transform="translate(277,73)"/>
</svg>
